# xmcd
#
# Track frame offsets: 
#        150
#        13022
#        30592
#        46332
#        63965
#        83532
#        101155
#        111977
#        130540
#        149132
#        163750
#        182070
#        201067
#        220207
#        236920
#        249372
#
# Disc length: 3552 seconds
#
# Revision: 0
# Processed by: cddbd v1.5.2PL0 Copyright (c) Steve Scherf et al.
# Submitted via: ExactAudioCopy v0.99pb4
#
DISCID=e00dde10
DTITLE=Ginuwine - Back II Da Basics
DYEAR=2005
DGENRE=R&B
TTITLE0=Intro (feat. Knight)
TTITLE1=Oh Girl
TTITLE2=Secrets
TTITLE3=When We Make Love
TTITLE4=Want U To Be
TTITLE5=The Club (feat. Jadakiss)
TTITLE6=Interlude (feat. Knight)
TTITLE7=She's Like
TTITLE8=Betta Half
TTITLE9=Glaze In My Eye
TTITLE10=I'm In Love
TTITLE11=Far Away
TTITLE12=Take A Chance
TTITLE13=Back 2 Da Basics
TTITLE14=Thank You's
TTITLE15=Way Back
EXTD=
EXTT0=
EXTT1=
EXTT2=
EXTT3=
EXTT4=
EXTT5=
EXTT6=
EXTT7=
EXTT8=
EXTT9=
EXTT10=
EXTT11=
EXTT12=
EXTT13=
EXTT14=
EXTT15=
PLAYORDER=
